<?xml version="1.0" standalone="no"?>
<!DOCTYPE svg PUBLIC "-//W3C//DTD SVG 20010904//EN"
 "http://www.w3.org/TR/2001/REC-SVG-20010904/DTD/svg10.dtd">
<svg version="1.0" xmlns="http://www.w3.org/2000/svg"
 width="126.000000pt" height="126.000000pt" viewBox="0 0 126.000000 126.000000"
 preserveAspectRatio="xMidYMid meet">
<metadata>
Created by potrace 1.11, written by Peter Selinger 2001-2013
</metadata>
<g transform="translate(0.000000,126.000000) scale(0.100000,-0.100000)"
fill="#000000" stroke="none">
<path d="M436 1236 c-58 -21 -61 -23 -118 -116 -57 -93 -58 -96 -54 -157 5
-73 5 -72 64 -126 26 -23 59 -54 75 -69 l27 -27 63 52 c85 71 82 65 83 132 1
55 9 151 20 216 3 20 -4 33 -29 55 -77 68 -66 64 -131 40z"/>
<path d="M733 1202 l-53 -47 5 -65 c3 -36 7 -103 9 -148 5 -93 8 -97 97 -173
l46 -38 74 60 c58 47 78 70 91 107 10 26 18 56 17 67 0 11 -22 67 -48 125 -46
103 -47 105 -101 132 -30 15 -62 28 -70 28 -8 -1 -39 -22 -67 -48z"/>
<path d="M83 842 c-28 -18 -51 -99 -56 -202 l-5 -103 60 -74 59 -73 61 0 c54
0 66 4 112 37 28 21 54 42 58 47 4 6 6 45 4 87 -2 71 -5 80 -41 130 -71 97
-113 136 -160 148 -51 13 -75 14 -92 3z"/>
<path d="M566 774 c-36 -24 -67 -50 -67 -57 -3 -27 0 -69 5 -75 7 -7 242 -5
254 2 8 5 8 84 0 90 -2 2 -30 21 -64 44 l-61 41 -67 -45z"/>
<path d="M1098 807 c-48 -12 -68 -27 -166 -119 l-53 -50 2 -80 c2 -78 2 -79
38 -106 20 -15 38 -29 41 -32 28 -31 78 -53 123 -54 l52 -1 47 63 c42 55 48
70 49 115 5 147 2 183 -19 230 -24 52 -30 54 -114 34z"/>
<path d="M504 511 c-26 -36 -51 -75 -56 -86 -5 -11 -58 -56 -118 -100 -118
-87 -115 -81 -111 -184 1 -35 10 -56 38 -93 l37 -48 123 0 c104 0 130 3 163
20 l40 20 40 -20 c32 -16 59 -20 150 -20 l110 0 42 38 c70 61 77 73 78 123 0
41 -4 50 -34 73 -19 14 -40 31 -48 38 -50 48 -91 78 -99 72 -5 -3 -9 -2 -8 3
3 20 -3 31 -24 40 -16 7 -32 34 -52 84 -42 110 -37 106 -138 106 l-87 0 -46
-66z m146 -75 c0 -7 6 -20 13 -30 11 -15 17 -16 40 -5 25 11 30 10 50 -9 18
-19 20 -25 9 -42 -18 -30 -15 -40 18 -51 25 -9 30 -16 30 -45 0 -32 -7 -39
-36 -35 -19 2 -26 -31 -10 -48 14 -15 13 -20 -8 -46 -22 -28 -24 -28 -48 -13
-34 22 -50 10 -57 -43 -1 -3 -17 -5 -38 -4 -30 0 -37 5 -40 25 -5 32 -24 42
-44 24 -30 -27 -79 18 -59 56 11 20 3 53 -11 44 -18 -11 -45 15 -44 43 1 21 9
32 33 43 30 15 31 15 14 42 -15 26 -15 28 8 53 22 24 25 24 48 9 28 -18 52
-12 52 14 0 26 6 30 46 30 20 0 34 -5 34 -12z"/>
<path d="M570 300 c-24 -24 -26 -63 -4 -84 8 -9 18 -16 22 -17 4 0 15 -2 26
-4 22 -4 66 37 66 63 0 27 -37 62 -65 62 -14 0 -34 -9 -45 -20z"/>
</g>
</svg>
