<svg xmlns="http://www.w3.org/2000/svg" width="1056" height="282" viewBox="0 0 1056 282">
  <path fill="#E8E8EB" d="M338,67.4 L338,83.5 C330,71.3 311.6,64.6 298.1,64.1 C257.6,62.8 221.3,95.5 221.3,142.6 C221.3,189.4 256.2,222.1 298.2,220.9 C311.1,220.5 329.7,214 337.9,201.5 L337.9,217.7 L381.3,217.7 L381.3,67.4 L338,67.4 Z M299.4,180.4 C278,180.4 260.7,163.1 260.7,141.7 C260.7,120.3 278,103 299.4,103 C320.8,103 338.1,120.3 338.1,141.7 C338.1,163.1 320.7,180.4 299.4,180.4 Z M3.41060513e-13,217.8 L43.7,217.8 L43.7,3.41060513e-13 L0.2,3.41060513e-13 L3.41060513e-13,217.8 Z M209.100479,143.6 C209.2,97 178.1,64.1 133.1,64.1 C89,64.1 55.9,97.6 55.9,142.5 C55.9,188.7 88.5,220.9 134.9,220.9 C167.5,220.9 191.6,205.8 204,181.4 L166.9,166.6 C160,177.8 151.2,184.7 134.9,184.7 C116.5,184.7 100.5,172 99,154.5 L208.5,154.5 C208.8,152.7 209.100479,148.8 209.100479,143.6 Z M99.4,126 C101.2,111.8 115.4,98.5 132.9,98.5 C150.7,98.5 164.3,110 166.1,125.9 C166,126 99.4,126 99.4,126 Z M486.4,64.1 C466.6,64.1 453,70.3 442.2,83.5 L442.2,67.4 L398,67.4 L398,217.7 L442.2,217.7 L442.2,133.9 C442.2,114.2 453.4,103 470.4,103 C487.7,103 497.4,114.2 497.4,133.9 L497.4,217.7 L541.6,217.7 L541.6,125.3 C541.6,87.5 520.6,64.1 486.4,64.1 Z M706.9,64.1 L630.4,64.1 C588.2,64.1 553.9,99.3 553.9,142.5 C553.9,185.8 588.1,220.9 630.4,220.9 C672.7,220.9 706.9,185.8 706.9,142.5 C706.9,128 703.1,114.5 696.4,102.8 L706.9,102.8 L706.9,64.1 Z M630.3,180.4 C609.3,180.4 592.2,163.1 592.2,141.7 C592.2,120.3 609.3,103 630.3,103 C651.3,103 668.4,120.3 668.4,141.7 C668.4,163.1 651.3,180.4 630.3,180.4 Z M553.8,237.5 L706.8,237.7 L706.8,281.2 L553.8,281 L553.8,237.5 Z M835.7,67.4 L835.7,83.5 C827.7,71.3 809.3,64.6 795.8,64.1 C755.3,62.8 719,95.5 719,142.6 C719,189.4 753.9,222.1 795.9,220.9 C808.8,220.5 827.4,214 835.6,201.5 L835.6,217.7 L879,217.7 L879,67.4 L835.7,67.4 Z M797,180.4 C775.7,180.4 758.3,163.1 758.3,141.7 C758.3,120.3 775.6,103 797,103 C818.4,103 835.7,120.3 835.7,141.7 C835.7,163.1 818.4,180.4 797,180.4 Z M895.7,67.4 L895.7,281.2 L939.1,281.2 L939.1,201.5 C947.3,214 965.9,220.5 978.8,220.9 C1020.8,222.1 1055.7,189.4 1055.7,142.6 C1055.7,95.5 1019.4,62.8 978.9,64.1 C965.4,64.6 947,71.3 939,83.5 L939,67.4 L895.7,67.4 Z M939,141.7 C939,120.3 956.3,103 977.7,103 C999.1,103 1016.4,120.3 1016.4,141.7 C1016.4,163.1 999,180.4 977.7,180.4 C956.3,180.4 939,163.1 939,141.7 Z"/>
</svg>
