<svg xmlns="http://www.w3.org/2000/svg" xmlns:xlink="http://www.w3.org/1999/xlink" width="227" height="49" viewBox="0 0 227 49">
  <defs>
    <polygon id="tiglogo-a" points="0 .334 43.978 .334 43.978 45.959 0 45.959"/>
    <polygon id="tiglogo-c" points="0 49 227 49 227 0 0 0"/>
  </defs>
  <g fill="none" fill-rule="evenodd" opacity=".5">
    <mask id="tiglogo-b" fill="#fff">
      <use xlink:href="#tiglogo-a"/>
    </mask>
    <path fill="#FFF" d="M22.3451442,0.333465152 C10.0036558,0.333465152 -3.41085271e-05,10.5677682 -3.41085271e-05,23.1905864 C-3.41085271e-05,35.8123591 10.3846481,46.9314652 23.8223845,45.8919348 C13.3357178,45.371647 4.88533023,37.6739652 4.88533023,26.8580409 C5.59922171,6.36573788 35.2221364,2.83070758 35.9056713,24.0461167 C35.9056713,31.8605409 30.2330822,37.9914348 22.9048651,38.0904045 C15.2689891,38.1939045 11.7060124,33.51445 11.5030667,32.0574348 C11.5030667,34.2427833 14.9640589,39.6509197 22.8035628,39.6509197 C35.528431,39.6509197 47.4394698,23.5296621 37.0561519,8.55038939 C38.8894853,9.59166212 42.1465085,13.0242379 43.9784775,17.8075409 C42.5544465,10.7357379 34.6869736,0.333465152 22.3451442,0.333465152" mask="url(#tiglogo-b)"/>
    <polygon fill="#FFF" points="62 1 62 5.806 58.474 5.806 58.474 25 52.524 25 52.524 5.806 49 5.806 49 1"/>
    <path fill="#FFF" d="M67.4013165,12.8223077 L62,12.8223077 L62,11.5318743 C62,10.0363321 62.1670191,8.88641712 62.5062123,8.07422741 C62.8433436,7.26616048 63.5213863,6.55085634 64.5382785,5.93037638 C65.5551708,5.30886572 66.8768901,5 68.5044676,5 C70.4557735,5 71.925267,5.35043719 72.9143227,6.05131156 C73.9044094,6.75871369 74.5006609,7.61968976 74.6972349,8.64214179 C74.8982764,9.66528095 75,11.7682476 75,14.9579132 L75,24.6409737 L69.4003912,24.6409737 L69.4003912,22.9307028 C69.0464206,23.6178345 68.5917574,24.1383368 68.0357143,24.4819027 C67.4776092,24.8278735 66.8126256,25 66.0414508,25 C65.0321191,25 64.1066406,24.7134661 63.2626097,24.1324962 C62.4206408,23.5570233 62,22.2930445 62,20.3457132 L62,18.7584388 C62,17.3144315 62.2247542,16.3314895 62.6718568,15.8058337 C63.1168975,15.2843008 64.2252036,14.6713792 65.9964312,13.9725663 C67.8900021,13.2150035 68.9024268,12.7051518 69.0347362,12.4443853 C69.1684202,12.1822445 69.2340594,11.6493739 69.2340594,10.8409634 C69.2340594,9.82881831 69.1612033,9.17192036 69.0113672,8.86408534 C68.8663424,8.55934241 68.6209686,8.40198925 68.2762768,8.40198925 C67.8845035,8.40198925 67.6401607,8.53151358 67.544623,8.79056225 C67.4511473,9.04926735 67.4013165,9.71475444 67.4013165,10.7956127 L67.4013165,12.8223077 Z M69.2340594,15.4712006 C68.3072063,16.1603937 67.7735011,16.7403329 67.6229777,17.2068954 C67.4745162,17.6731143 67.4013165,18.3437548 67.4013165,19.2191607 C67.4013165,20.2206552 67.4655811,20.8686204 67.5951412,21.15859 C67.7222957,21.4516517 67.9790103,21.5973236 68.363223,21.5973236 C68.7237232,21.5973236 68.9598181,21.4811984 69.0708206,21.2527271 C69.1811357,21.0235686 69.2340594,20.4250769 69.2340594,19.4500369 L69.2340594,15.4712006 Z"/>
    <polygon fill="#FFF" points="89.316 5.307 86.982 13.167 90 25 84.535 25 82.721 16.429 82.705 25 77 25 77 1 82.705 1 82.721 11.071 84.535 5.307"/>
    <mask id="tiglogo-d" fill="#fff">
      <use xlink:href="#tiglogo-c"/>
    </mask>
    <path fill="#FFF" d="M91 4.1028654L97 4.1028654 97 1 91 1 91 4.1028654zM91 25L97 25 97 5.30694674 91 5.30694674 91 25zM104.716728 5.33444699L104.622863 7.14067064C105.029836 6.42839651 105.53235 5.89314139 106.122695 5.53490528 106.715387 5.17771869 107.394904 5 108.171304 5 109.138451 5 109.928931 5.24138956 110.545759 5.72346901 111.161582 6.20869702 111.556152 6.81951757 111.734495 7.55523098 111.911498 8.28884535 112 9.51363501 112 11.2330984L112 25 106.376467 25 106.376467 11.3849289C106.376467 10.033847 106.334563 9.20752506 106.250754 8.91295982 106.164935 8.61244731 105.928595 8.46411517 105.541066 8.46411517 105.135434 8.46411517 104.881328 8.6369361 104.776064 8.97803005 104.671136 9.31807448 104.622863 10.2301072 104.622863 11.7106299L104.622863 25 99 25 99 5.33444699 104.716728 5.33444699zM127 5.3287532L127 20.2179029C127 22.229281 126.955313 23.5305384 126.867954 24.1202996 126.779251 24.7059342 126.461399 25.3263012 125.921119 25.9834637 125.382854 26.6389067 124.630224 27.1385703 123.667597 27.4831422 122.69993 27.8273702 121.488331 28 120.026078 28 118.229175 28 116.780362 27.6836266 115.692745 27.0501921 114.60244 26.418477 114.038639 25.1691461 114 23.3156108L119.47471 23.3156108C119.47471 24.1687873 119.77845 24.5924525 120.384922 24.5924525 120.817012 24.5924525 121.106304 24.463496 121.248094 24.2014563 121.388876 23.9421677 121.460107 23.395392 121.460107 22.5662874L121.460107 21.1161282C120.974258 21.5731501 120.461193 21.9163465 119.926624 22.1477805 119.388359 22.3778389 118.826911 22.4968228 118.234551 22.4968228 117.217828 22.4968228 116.378176 22.2846463 115.719961 21.8558229 115.060402 21.4276872 114.609832 20.8661244 114.364891 20.1725102 114.122638 19.4754571 114 18.4871342 114 17.2044466L114 10.174424C114 8.33911457 114.32054 7.01722411 114.955907 6.2108159 115.592282 5.40543935 116.559613 5 117.857228 5 118.569874 5 119.215321 5.1492457 119.800289 5.44876875 120.385594 5.7458846 120.904035 6.19637277 121.364684 6.79576275L121.781991 5.3287532 127 5.3287532zM121.364684 10.4742909C121.364684 9.58466277 121.315293 9.01794178 121.214158 8.77275242 121.114032 8.5310019 120.892947 8.40514032 120.550231 8.40514032 120.218268 8.40514032 119.984079 8.54682057 119.844305 8.82571057 119.704867 9.10356892 119.635316 9.6530957 119.635316 10.4742909L119.635316 17.0070571C119.635316 17.8777716 119.686387 18.443461 119.793906 18.6989669 119.899072 18.9592871 120.116797 19.0878998 120.450441 19.0878998 120.833139 19.0878998 121.078752 18.9338397 121.192655 18.6195296 121.306557 18.306939 121.364684 17.59785 121.364684 16.4950137L121.364684 10.4742909z" mask="url(#tiglogo-d)"/>
    <polygon fill="#FFF" points="130 25 136 25 136 1 130 1" mask="url(#tiglogo-d)"/>
    <polygon fill="#FFF" points="151 1 151 5.806 147.473 5.806 147.473 25 141.525 25 141.525 5.806 138 5.806 138 1" mask="url(#tiglogo-d)"/>
    <path fill="#FFF" d="M165,10.3464066 L158.965986,10.3464066 L158.965986,8.1661272 C158.965986,6.79539563 158.90887,5.93400311 158.794981,5.59000659 C158.682469,5.24741127 158.41306,5.07226029 157.986409,5.07226029 C157.61481,5.07226029 157.362604,5.22078832 157.231856,5.51539227 C157.099044,5.81174773 157.033326,6.57155268 157.033326,7.79340592 L157.033326,19.2924181 C157.033326,20.3685457 157.09698,21.0751047 157.231856,21.4148976 C157.359507,21.757493 157.623756,21.9249373 158.016688,21.9249373 C158.4485,21.9249373 158.744059,21.7361245 158.897171,21.3486906 C159.053036,20.9630081 159.130453,20.2133619 159.130453,19.0972999 L159.130453,16.2538989 L157.950625,16.2538989 L157.950625,12.6142615 L165,12.6142615 L165,25.4990682 L161.184915,25.4990682 L160.621667,23.7762832 C160.211187,24.5192736 159.695765,25.0755531 159.071272,25.4430199 C158.4485,25.8122381 157.713215,26 156.868171,26 C155.855907,26 154.914866,25.7467317 154.03163,25.2352908 C153.153211,24.7259518 152.484332,24.0978604 152.028091,23.3482142 C151.569785,22.5950649 151.287301,21.8079364 151.172381,20.9836759 C151.057804,20.1569633 151,18.9203974 151,17.2722267 L151,10.1428812 C151,7.85085544 151.118705,6.18587022 151.357492,5.14757521 C151.597655,4.11243292 152.282361,3.15961159 153.409202,2.29926997 C154.541891,1.43472473 156.005923,1 157.799233,1 C159.565018,1 161.028017,1.375874 162.193738,2.1262208 C163.359802,2.87901971 164.116076,3.77228971 164.468407,4.80533019 C164.823834,5.83942158 165,7.34186669 165,9.30741099 L165,10.3464066 Z" mask="url(#tiglogo-d)"/>
    <polygon fill="#FFF" points="167 25 173 25 173 1 167 1" mask="url(#tiglogo-d)"/>
    <path fill="#FFF" d="M189 12.127274L189 16.8530225C189 18.5911223 188.914909 19.8640338 188.743714 20.6721007 188.575896 21.4825726 188.216623 22.2408225 187.664545 22.9416969 187.114494 23.6456633 186.405065 24.1644478 185.537273 24.4973631 184.674208 24.833027 183.679455 25 182.55774 25 181.302649 25 180.238338 24.8584509 179.369532 24.5691684 178.501403 24.285383 177.823714 23.8531771 177.342545 23.27633 176.857662 22.7005136 176.514597 21.9992957 176.30761 21.1816089 176.103325 20.3618608 176 19.1346435 176 17.4934293L176 12.54986C176 10.7547283 176.190104 9.35194888 176.561532 8.34427018 176.936675 7.33521722 177.610987 6.52680673 178.58413 5.91663374 179.555584 5.3040558 180.802234 5 182.316987 5 183.589974 5 184.683662 5.19720681 185.595688 5.58852834 186.506026 5.98019343 187.208364 6.49313727 187.707091 7.12186281 188.202442 7.75333688 188.542468 8.40198925 188.725818 9.07125556 188.90613 9.74189614 189 10.7615996 189 12.127274zM183.337065 10.6619655C183.337065 9.67146514 183.28439 9.04926735 183.180727 8.79056225 183.075714 8.53151358 182.854883 8.40198925 182.512831 8.40198925 182.173143 8.40198925 181.946571 8.53151358 181.832104 8.79056225 181.717636 9.04926735 181.661584 9.67146514 181.661584 10.6619655L181.661584 19.39541C181.661584 20.3082645 181.717636 20.9050384 181.832104 21.1795475 181.946571 21.4571487 182.169429 21.5973236 182.498987 21.5973236 182.840701 21.5973236 183.064234 21.46883 183.174987 21.2176833 183.281013 20.963101 183.337065 20.4192363 183.337065 19.5857455L183.337065 10.6619655zM196.639068 1L196.639068 6.59255798C197.103474 6.02698739 197.621646 5.60531121 198.194592 5.33098014 198.767875 5.05078288 199.390555 4.9124096 200.059944 4.9124096 200.831825 4.9124096 201.504575 5.03905048 202.072145 5.29129703 202.641395 5.54423373 203.073205 5.89965637 203.373287 6.35860016 203.671354 6.81719889 203.848783 7.26613564 203.912966 7.70023436 203.96942 8.138819 204 9.07637561 204 10.5080732L204 19.2449138C204 20.6662593 203.912966 21.7235554 203.729825 22.421633 203.548028 23.11626 203.12193 23.7222039 202.453885 24.2363589 201.78416 24.7425774 200.986403 25 200.065321 25 199.404332 25 198.790053 24.8488591 198.218115 24.545197 197.646513 24.2411899 197.121284 23.786732 196.648814 23.1807882L196.283203 24.6394013 191 24.6394013 191 1 196.639068 1zM198.364628 10.7603198C198.364628 9.75754482 198.305485 9.0998404 198.182495 8.79341778 198.060177 8.48734023 197.822597 8.32929793 197.46774 8.32929793 197.119604 8.32929793 196.895466 8.46698106 196.792974 8.73406565 196.689138 9.00149531 196.639068 9.67714339 196.639068 10.7603198L196.639068 19.1365617C196.639068 20.1797099 196.695187 20.850527 196.813473 21.1417665 196.927054 21.4361116 197.161609 21.5824215 197.507729 21.5824215 197.865946 21.5824215 198.096805 21.4299004 198.205346 21.1283087 198.312206 20.826372 198.364628 20.0962028 198.364628 18.9460827L198.364628 10.7603198zM211.40544 12.8223077L206 12.8223077 206 11.5318743C206 10.0363321 206.171143 8.88641712 206.507243 8.07422741 206.845406 7.26616048 207.523792 6.55085634 208.541715 5.93037638 209.558264 5.30886572 210.881701 5 212.506873 5 214.458523 5 215.92836 5.35043719 216.916041 6.05131156 217.907502 6.75871369 218.499974 7.61968976 218.702733 8.64214179 218.899651 9.66528095 219 11.7682476 219 14.9579132L219 24.6409737 213.399704 24.6409737 213.399704 22.9307028C213.050888 23.6178345 212.591414 24.1383368 212.036745 24.4819027 211.481046 24.8278735 210.816062 25 210.045231 25 209.034525 25 208.106297 24.7134661 207.265703 24.1324962 206.424765 23.5570233 206 22.2930445 206 20.3457132L206 18.7584388C206 17.3144315 206.225098 16.3314895 206.672544 15.8058337 207.119303 15.2843008 208.229327 14.6713792 210.000899 13.9725663 211.890346 13.2150035 212.90552 12.7051518 213.039547 12.4443853 213.171857 12.1822445 213.238183 11.6493739 213.238183 10.8409634 213.238183 9.82881831 213.162234 9.17192036 213.016522 8.86408534 212.86703 8.55934241 212.620969 8.40198925 212.279026 8.40198925 211.885191 8.40198925 211.642566 8.53151358 211.548747 8.79056225 211.451491 9.04926735 211.40544 9.71475444 211.40544 10.7956127L211.40544 12.8223077zM213.238183 15.4712006C212.310299 16.1603937 211.774188 16.7403329 211.626414 17.2068954 211.478984 17.6731143 211.40544 18.3437548 211.40544 19.2191607 211.40544 20.2206552 211.467299 20.8686204 211.59789 21.15859 211.727794 21.4516517 211.981416 21.5973236 212.36666 21.5973236 212.726129 21.5973236 212.964286 21.4811984 213.073226 21.2527271 213.182167 21.0235686 213.238183 20.4250769 213.238183 19.4500369L213.238183 15.4712006z" mask="url(#tiglogo-d)"/>
    <polygon fill="#FFF" points="221 25 227 25 227 1 221 1" mask="url(#tiglogo-d)"/>
    <polygon fill="#FFF" points="53 38 55 38 55 31 53 31" mask="url(#tiglogo-d)"/>
    <path fill="#FFF" d="M56 38L56 31 57.9155709 31 59.4224913 33.5671235C59.849827 34.3035962 60.2695502 35.176465 60.6017301 35.9664263L60.6262976 35.9664263C60.5283737 35.0407374 60.4937716 34.0959931 60.4937716 33.0359138L60.4937716 31 62 31 62 38 60.2802768 38 58.7321799 35.3004919C58.3038062 34.5432924 57.8176471 33.6496967 57.4737024 32.8279765L57.4297578 32.8279765C57.484083 33.7630259 57.5062284 34.7498925 57.5062284 35.8918764L57.5062284 38 56 38zM63.3344948 37.0799852C63.7689895 37.3222525 64.4609756 37.5623006 65.1655052 37.5623006 65.9229965 37.5623006 66.3250871 37.2305238 66.3250871 36.7149198 66.3250871 36.2429608 65.9759582 35.9548292 65.1 35.6341486 63.8878049 35.1718064 63.087108 34.4601692 63.087108 33.320958 63.087108 32.0012483 64.1369338 31 65.8477352 31 66.6818815 31 67.2766551 31.1719913 67.710453 31.3920662L67.3407666 32.7949975C67.058885 32.6448287 66.5285714 32.4258634 65.8240418 32.4258634 65.1097561 32.4258634 64.7637631 32.7831615 64.7637631 33.1733783 64.7637631 33.6664201 65.1655052 33.8853854 66.1170732 34.2767118 67.4055749 34.7826992 68 35.4950761 68 36.5987794 68 37.8977761 67.0696864 39 65.0682927 39 64.2355401 39 63.4108014 38.7577327 63 38.5180545L63.3344948 37.0799852zM69 31.1653394C69.4848041 31.0709139 70.165126 31 71.1264215 31 72.0990224 31 72.8022877 31.2127418 73.2684711 31.6473265 73.7117111 32.0367842 74 32.6977626 74 33.4736443 74 34.2639363 73.784199 34.9226394 73.368225 35.3594994 72.8328789 35.9275692 72.026202 36.1971938 71.0954978 36.1971938 70.8896721 36.1971938 70.7037973 36.185438 70.5604841 36.149033L70.5604841 39 69 39 69 31.1653394zM70.5604841 34.7713311C70.6941544 34.8073568 70.8600785 34.8187334 71.0861874 34.8187334 71.924453 34.8187334 72.4415109 34.3348502 72.4415109 33.5328024 72.4415109 32.8016686 72.0065838 32.3686007 71.2102148 32.3686007 70.8896721 32.3686007 70.6732061 32.3905954 70.5604841 32.4262419L70.5604841 34.7713311z" mask="url(#tiglogo-d)"/>
    <polygon fill="#FFF" points="75 38 77 38 77 31 75 31" mask="url(#tiglogo-d)"/>
    <path fill="#FFF" d="M78,31.1759575 C78.4794737,31.0709139 79.1876146,31 79.993801,31 C80.9767854,31 81.6637358,31.1759575 82.1353027,31.6374668 C82.538554,32.0159272 82.7545702,32.5673113 82.7545702,33.2976868 C82.7545702,34.2995829 82.1571257,34.9946909 81.584667,35.2419416 L81.584667,35.2775882 C82.0470618,35.5013273 82.3038775,36.0204778 82.4699222,36.7497156 C82.6758176,37.656807 82.8715921,38.6935912 83,39 L81.4692264,39 C81.3702321,38.7770193 81.2019736,38.1285552 81.0169524,37.1509291 C80.8275033,36.1486538 80.5441204,35.8900265 79.9258018,35.8797876 L79.4820672,35.8797876 L79.4820672,39 L78,39 L78,31.1759575 Z M79.4820672,34.5813424 L80.0731862,34.5813424 C80.8183313,34.5813424 81.2608008,34.1361396 81.2608008,33.4395146 C81.2608008,32.7193781 80.8467961,32.3439515 80.1588968,32.3439515 C79.7973939,32.3439515 79.5914985,32.3686007 79.4820672,32.4004551 L79.4820672,34.5813424 Z" mask="url(#tiglogo-d)"/>
    <polygon fill="#FFF" points="88.661 35.041 85.771 35.041 85.771 36.702 89 36.702 89 38 84 38 84 31 88.835 31 88.835 32.3 85.771 32.3 85.771 33.752 88.661 33.752" mask="url(#tiglogo-d)"/>
    <polygon fill="#FFF" points="95 38 97 38 97 31 95 31" mask="url(#tiglogo-d)"/>
    <path fill="#FFF" d="M98,38 L98,31 L99.9126622,31 L101.419325,33.5671235 C101.849553,34.3035962 102.269743,35.176465 102.602711,35.9664263 L102.623479,35.9664263 C102.526911,35.0407374 102.493683,34.0959931 102.493683,33.0359138 L102.493683,31 L104,31 L104,38 L102.279781,38 L100.730545,35.3004919 C100.302048,34.5432924 99.8164407,33.6496967 99.4713585,32.8279765 L99.4305163,32.8279765 C99.4824344,33.7630259 99.5063167,34.7498925 99.5063167,35.8918764 L99.5063167,38 L98,38 Z" mask="url(#tiglogo-d)"/>
    <polygon fill="#FFF" points="105 31 110 31 110 32.3 106.849 32.3 106.849 33.899 109.795 33.899 109.795 35.186 106.849 35.186 106.849 38 105 38" mask="url(#tiglogo-d)"/>
    <path fill="#FFF" d="M113.425266 39C111.275698 39 110 37.2642626 110 35.0584374 110 32.7364771 111.405005 31 113.545536 31 115.779571 31 117 32.7830791 117 34.9193712 117 37.4706426 115.564753 39 113.435694 39L113.425266 39zM113.49861 37.6097087C114.612673 37.6097087 115.251564 36.4931114 115.251564 34.9759593 115.251564 33.5867776 114.635614 32.39362 113.49861 32.39362 112.366471 32.39362 111.72897 33.5645862 111.72897 35.0122053 111.72897 36.4701803 112.389761 37.6097087 113.48992 37.6097087L113.49861 37.6097087zM118 31.1759575C118.481158 31.0709139 119.189302 31 119.993235 31 120.976416 31 121.662747 31.1759575 122.135685 31.6374668 122.538126 32.0159272 122.752466 32.5673113 122.752466 33.2976868 122.752466 34.2995829 122.155602 34.9946909 121.584029 35.2419416L121.584029 35.2775882C122.046219 35.5013273 122.300708 36.0204778 122.470789 36.7497156 122.676593 37.656807 122.871965 38.6935912 123 39L121.467691 39C121.367476 38.7770193 121.201189 38.1285552 121.014353 37.1509291 120.829097 36.1486538 120.543311 35.8900265 119.925582 35.8797876L119.48394 35.8797876 119.48394 39 118 39 118 31.1759575zM119.48394 34.5813424L120.070688 34.5813424C120.818981 34.5813424 121.260306 34.1361396 121.260306 33.4395146 121.260306 32.7193781 120.848065 32.3439515 120.159838 32.3439515 119.795334 32.3439515 119.591426 32.3686007 119.48394 32.4004551L119.48394 34.5813424zM131.289767 35.3206781C131.258282 34.4782713 131.225067 33.472063 131.225067 32.4444604L131.204308 32.4444604C130.967996 33.3363419 130.664908 34.3338586 130.388115 35.1548711L129.505493 37.8866762 128.226019 37.8866762 127.450999 35.1859599C127.216071 34.3559217 126.979068 33.3697708 126.795 32.4444604L126.773895 32.4444604C126.743448 33.3894938 126.698815 34.4692455 126.65695 35.3420726L126.51717 38 125 38 125.46432 31 127.646138 31 128.355073 33.3483763C128.591731 34.1473257 128.805899 35.0211557 128.968861 35.8398281L129.012802 35.8398281C129.203443 35.0295129 129.45221 34.1162369 129.697864 33.3246418L130.461811 31 132.611106 31 133 38 131.407058 38 131.289767 35.3206781z" mask="url(#tiglogo-d)"/>
    <polygon fill="#FFF" points="138 38 140 38 140 31 138 31" mask="url(#tiglogo-d)"/>
    <path fill="#FFF" d="M141 38L141 31 142.911749 31 144.416508 33.5671235C144.846686 34.3035962 145.267866 35.176465 145.600104 35.9664263L145.621907 35.9664263C145.52362 35.0407374 145.492819 34.0959931 145.492819 33.0359138L145.492819 31 147 31 147 38 145.278941 38 143.7285 35.3004919C143.298668 34.5432924 142.816231 33.6496967 142.472573 32.8279765L142.428967 32.8279765C142.482263 33.7630259 142.503374 34.7498925 142.503374 35.8918764L142.503374 38 141 38zM150.435855 38L148 31 149.881658 31 150.806891 33.9592626C151.063316 34.8030469 151.301244 35.5920053 151.482228 36.4632026L151.515959 36.4632026C151.70601 35.6237643 151.944663 34.7903434 152.203264 33.9923588L153.173472 31 155 31 152.439378 38 150.435855 38zM157.423875 39C155.275698 39 154 37.2642626 154 35.0584374 154 32.7364771 155.406048 31 157.545536 31 159.780961 31 161 32.7830791 161 34.9193712 161 37.4706426 159.564753 39 157.436389 39L157.423875 39zM157.50139 37.6097087C158.612673 37.6097087 159.250869 36.4931114 159.250869 34.9759593 159.250869 33.5867776 158.635614 32.39362 157.50139 32.39362 156.366471 32.39362 155.731403 33.5645862 155.731403 35.0122053 155.731403 36.4701803 156.387327 37.6097087 157.489572 37.6097087L157.50139 37.6097087z" mask="url(#tiglogo-d)"/>
    <polygon fill="#FFF" points="163 31 164.809 31 164.809 36.671 168 36.671 168 38 163 38" mask="url(#tiglogo-d)"/>
    <path fill="#FFF" d="M169.435256,38 L167,31 L168.882481,31 L169.805586,33.9592626 C170.064926,34.8030469 170.300689,35.5920053 170.484222,36.4632026 L170.517592,36.4632026 C170.708016,35.6237643 170.946681,34.7903434 171.202031,33.9923588 L172.174102,31 L174,31 L171.441785,38 L169.435256,38 Z" mask="url(#tiglogo-d)"/>
    <polygon fill="#FFF" points="178.661 35.041 175.772 35.041 175.772 36.702 179 36.702 179 38 174 38 174 31 178.836 31 178.836 32.3 175.772 32.3 175.772 33.752 178.661 33.752" mask="url(#tiglogo-d)"/>
    <polygon fill="#FFF" points="53 49 55 49 55 42 53 42" mask="url(#tiglogo-d)"/>
    <path fill="#FFF" d="M56 49L56 42 57.9106937 42 59.4186448 44.5638409C59.8480065 45.3020883 60.2752938 46.1761705 60.6023277 46.9644798L60.631021 46.9644798C60.5238534 46.0400019 60.493086 45.0954992 60.493086 44.0492038L60.493086 42 62 42 62 49 60.2752938 49 58.7296612 46.2983217C58.3002996 45.5523982 57.8266882 44.6482788 57.4699239 43.8265948L57.437428 43.836941C57.480295 44.7617526 57.5027656 45.7513111 57.5027656 46.8887194L57.5027656 49 56 49zM63.3314131 48.0768484C63.77804 48.3165488 64.4571766 48.5621677 65.1592171 48.5621677 65.9153942 48.5621677 66.313784 48.2259213 66.313784 47.7198872 66.313784 47.2356776 65.9688368 46.960836 65.0946696 46.6282887 63.884578 46.1777408 63.0985564 45.4634485 63.0985564 44.3378185 63.0985564 43.0113284 64.1340922 42 65.8498057 42 66.6719184 42 67.2754026 42.1860637 67.7084953 42.3913626L67.3389089 43.8084801C67.0494864 43.6590373 66.5292893 43.4400518 65.818226 43.4400518 65.1078567 43.4400518 64.7597862 43.7822167 64.7597862 44.1854164 64.7597862 44.6810931 65.169281 44.9022981 66.1083426 45.2821936 67.3944336 45.786748 68 46.50252 68 47.5948583 68 48.8928654 67.0578151 50 65.0606607 50 64.2302193 50 63.4105358 49.7688075 63 49.5283673L63.3314131 48.0768484zM70.5615037 45.7686044C70.6950053 45.803825 70.8630446 45.8178375 71.0848831 45.8178375 71.9264081 45.8178375 72.441153 45.3319447 72.441153 44.5195986 72.441153 43.7886764 71.9951514 43.3520167 71.2117428 43.3520167 70.8902763 43.3520167 70.6734192 43.3879947 70.5615037 43.4232153L70.5615037 45.7686044zM69 42.1613331C69.4881775 42.0700625 70.1676408 42 71.1280553 42 72.1004251 42 72.7928401 42.2098087 73.2564426 42.6366219 73.7011158 43.0357887 74 43.6951335 74 44.4730165 74 45.250142 73.772848 45.907972 73.3613842 46.3601591 72.821068 46.9342927 72.0276966 47.1944707 71.0965064 47.1944707 70.8902763 47.1944707 70.7066286 47.180837 70.5615037 47.1584927L70.5615037 50 69 50 69 42.1613331z" mask="url(#tiglogo-d)"/>
    <polygon fill="#FFF" points="75 49 77 49 77 42 75 42" mask="url(#tiglogo-d)"/>
    <path fill="#FFF" d="M79.4810838,45.5784889 L80.0741489,45.5784889 C80.8184804,45.5784889 81.2599634,45.1323613 81.2599634,44.4374172 C81.2599634,43.7068737 80.8462704,43.3429275 80.1619403,43.3296724 C79.7956167,43.3296724 79.5912967,43.364893 79.4810838,43.3879947 L79.4810838,45.5784889 Z M78,42.1613331 C78.4825365,42.0700625 79.1987621,42 79.9929893,42 C80.9773258,42 81.6654456,42.1745881 82.1359818,42.6218519 C82.529148,42.9998106 82.7448367,43.5542511 82.7448367,44.2851733 C82.7448367,45.2963454 82.1454557,45.9924257 81.5776543,46.2397273 L81.5776543,46.2753266 C82.0361902,46.4995266 82.2904061,47.0301079 82.4603044,47.7621663 C82.6674667,48.6574512 82.8702078,49.6894528 83,50 L81.4655466,50 C81.3610181,49.7761788 81.2021727,49.1266806 81.0051159,48.1484567 C80.831428,47.1584927 80.5437378,46.8884681 79.9348828,46.8755917 L79.4810838,46.8755917 L79.4810838,50 L78,50 L78,42.1613331 Z" mask="url(#tiglogo-d)"/>
    <polygon fill="#FFF" points="89.664 46.04 86.778 46.04 86.778 47.7 90 47.7 90 49 85 49 85 42 89.839 42 89.839 43.299 86.778 43.299 86.778 44.752 89.664 44.752" mask="url(#tiglogo-d)"/>
    <path fill="#FFF" d="M91.4855393,45.5784889 L92.0747032,45.5784889 C92.8198409,45.5784889 93.2643976,45.1323613 93.2643976,44.4374172 C93.2643976,43.7068737 92.8485729,43.3429275 92.1615307,43.3296724 C91.7993812,43.3296724 91.5938368,43.364893 91.4855393,43.3879947 L91.4855393,45.5784889 Z M90,42.1613331 C90.4818136,42.0700625 91.1988507,42 91.993559,42 C92.9786562,42 93.6647512,42.1745881 94.1383556,42.6218519 C94.5276585,42.9998106 94.7452008,43.5542511 94.7452008,44.2851733 C94.7452008,45.2963454 94.1459333,45.9924257 93.5741349,46.2397273 L93.5741349,46.2753266 C94.0382672,46.4995266 94.2933822,47.0301079 94.457565,47.7621663 C94.665951,48.6574512 94.8749684,49.6894528 95,50 L93.4667845,50 C93.3575398,49.7761788 93.2025133,49.1266806 93.0083354,48.1484567 C92.82805,47.1584927 92.5445188,46.8884681 91.9345163,46.8755917 L91.4855393,46.8755917 L91.4855393,50 L90,50 L90,42.1613331 Z" mask="url(#tiglogo-d)"/>
    <polygon fill="#FFF" points="99 49 101 49 101 42 99 42" mask="url(#tiglogo-d)"/>
    <path fill="#FFF" d="M102,49 L102,42 L103.914225,42 L105.419838,44.5638409 C105.848829,45.3020883 106.277819,46.1761705 106.598699,46.9644798 L106.635312,46.9644798 C106.527201,46.0400019 106.492315,45.0954992 106.492315,44.0492038 L106.492315,42 L108,42 L108,49 L106.277819,49 L104.729377,46.2983217 C104.301422,45.5523982 103.826492,44.6482788 103.474181,43.8265948 L103.439295,43.836941 C103.483162,44.7617526 103.505613,45.7513111 103.505613,46.8887194 L103.505613,49 L102,49 Z" mask="url(#tiglogo-d)"/>
    <polygon fill="#FFF" points="110 42 115 42 115 43.3 111.855 43.3 111.855 44.898 114.79 44.898 114.79 46.186 111.855 46.186 111.855 49 110 49" mask="url(#tiglogo-d)"/>
    <path fill="#FFF" d="M116.737586 46.0227178C116.737586 47.5376091 117.409147 48.6084869 118.509896 48.6084869 119.623146 48.6084869 120.259983 47.4840467 120.259983 45.978021 120.259983 44.5890936 119.635299 43.3900356 118.501563 43.3900356 117.387271 43.3900356 116.737586 44.5181696 116.737586 46.0227178M122 45.9174401C122 48.4596204 120.552359 50 118.423434 50 116.262215 50 115 48.263102 115 46.0585492 115 43.7361592 116.395555 42 118.542537 42 120.780495 42 122 43.7797479 122 45.9174401M124.483506 45.5784889L125.073117 45.5784889C125.821663 45.5784889 126.262765 45.1323613 126.262765 44.4374172 126.262765 43.7068737 125.849785 43.3429275 125.16475 43.3296724 124.798534 43.3296724 124.59315 43.364893 124.483506 43.3879947L124.483506 45.5784889zM123 42.1613331C123.480915 42.0700625 124.19976 42 124.996651 42 125.978703 42 126.665634 42.1745881 127.136438 42.6218519 127.529196 42.9998106 127.750695 43.5542511 127.750695 44.2851733 127.750695 45.2963454 127.150341 45.9924257 126.578741 46.2397273L126.578741 46.2753266C127.04133 46.4995266 127.29727 47.0301079 127.463789 47.7621663 127.669173 48.6574512 127.874558 49.6894528 128 50L126.470361 50C126.362614 49.7761788 126.203994 49.1266806 126.007773 48.1484567 125.833038 47.1584927 125.549924 46.8884681 124.936931 46.8755917L124.483506 46.8755917 124.483506 50 123 50 123 42.1613331zM135.293117 46.3185524C135.258226 45.4794736 135.225754 44.4611644 135.225754 43.4438564L135.193972 43.4438564C134.968737 44.3356697 134.667847 45.3329519 134.38803 46.1543413L133.505398 48.8835169 132.226531 48.8835169 131.455134 46.1760359C131.216772 45.3563153 130.9677 44.3573642 130.797046 43.4438564L130.776665 43.4438564C130.733828 44.3907405 130.702047 45.4681257 130.649193 46.340247L130.520339 49 129 49 129.466016 42 131.647897 42 132.358148 44.3356697C132.58062 45.1480475 132.808619 46.0181662 132.968218 46.8402231L133.002764 46.8402231C133.207272 46.0298479 133.452198 45.1033233 133.689179 44.3246555L134.464721 42 136.600656 42 137 49 135.397444 49 135.293117 46.3185524z" mask="url(#tiglogo-d)"/>
    <polygon fill="#FFF" points="143.661 46.04 140.777 46.04 140.777 47.7 144 47.7 144 49 139 49 139 42 143.835 42 143.835 43.299 140.777 43.299 140.777 44.752 143.661 44.752" mask="url(#tiglogo-d)"/>
    <path fill="#FFF" d="M145.482031,45.5784889 L146.070991,45.5784889 C146.820059,45.5784889 147.263753,45.1323613 147.263753,44.4374172 C147.263753,43.7068737 146.845955,43.3429275 146.160677,43.3296724 C145.798459,43.3296724 145.592244,43.364893 145.482031,43.3879947 L145.482031,45.5784889 Z M144,42.1613331 C144.478747,42.0700625 145.197183,42 145.995516,42 C146.977957,42 147.665446,42.1745881 148.135982,42.6218519 C148.530095,42.9998106 148.746732,43.5542511 148.746732,44.2851733 C148.746732,45.2963454 148.143561,45.9924257 147.576707,46.2397273 L147.576707,46.2753266 C148.037138,46.4995266 148.292617,47.0301079 148.457462,47.7621663 C148.666519,48.6574512 148.874629,49.6894528 149,50 L147.468073,50 C147.360702,49.7761788 147.202173,49.1266806 147.006063,48.1484567 C146.830481,47.1584927 146.544685,46.8884681 145.934883,46.8755917 L145.482031,46.8755917 L145.482031,50 L144,50 L144,42.1613331 Z" mask="url(#tiglogo-d)"/>
    <polygon fill="#FFF" points="158.662 46.04 155.779 46.04 155.779 47.7 159 47.7 159 49 154 49 154 42 158.835 42 158.835 43.299 155.779 43.299 155.779 44.752 158.662 44.752" mask="url(#tiglogo-d)"/>
    <path fill="#FFF" d="M159 49L159 42 160.912202 42 162.422053 44.5638409C162.8486 45.3020883 163.283097 46.1761705 163.604908 46.9644798L163.633598 46.9644798C163.529554 46.0400019 163.496716 45.0954992 163.496716 44.0492038L163.496716 42 165 42 165 49 163.283097 49 161.733149 46.2983217C161.3028 45.5523982 160.830626 44.6482788 160.473903 43.8265948L160.443139 43.836941C160.487383 44.7617526 160.506395 45.7513111 160.506395 46.8887194L160.506395 49 159 49zM173 49.5575692C172.525588 49.7414172 171.627745 50 170.729253 50 169.48656 50 168.587743 49.6367883 167.961364 48.9417535 167.33466 48.2639077 166.99046 47.2415339 167.000201 46.0906161 167.009943 43.4875987 168.656583 42 170.889339 42 171.769971 42 172.445058 42.1969265 172.779192 42.3848849L172.454475 43.8033537C172.080076 43.614648 171.618978 43.4636835 170.87018 43.4636835 169.586249 43.4636835 168.619241 44.301462 168.619241 46.0001868 168.619241 47.6125928 169.495003 48.5680788 170.760101 48.5680788 171.113069 48.5680788 171.396547 48.5213695 171.515718 48.4544818L171.515718 46.8155449 170.464933 46.8155449 170.464933 45.428091 173 45.428091 173 49.5575692zM177.288753 46.0179746L176.816087 44.5328025C176.676335 44.1196243 176.542072 43.6003147 176.426466 43.1848002L176.404881 43.1848002C176.290373 43.6003147 176.176597 44.1293029 176.054406 44.5328025L175.597836 46.0179746 177.288753 46.0179746zM175.346504 47.2004386L174.802498 49 173 49 175.346504 42 177.623132 42 180 49 178.135675 49 177.543012 47.2004386 175.346504 47.2004386zM186 49.5575692C185.526517 49.7414172 184.625665 50 183.729684 50 182.483948 50 181.584071 49.6367883 180.959254 48.9417535 180.333789 48.2639077 179.988906 47.2415339 180.000272 46.0906161 180.010339 43.4875987 181.65519 42 183.888161 42 184.769853 42 185.444031 42.1969265 185.777872 42.3848849L185.453448 43.8033537C185.079988 43.614648 184.616896 43.4636835 183.867052 43.4636835 182.58462 43.4636835 181.615896 44.301462 181.615896 46.0001868 181.615896 47.6125928 182.493691 48.5680788 183.75956 48.5680788 184.109964 48.5680788 184.396067 48.5213695 184.518173 48.4544818L184.518173 46.8155449 183.466313 46.8155449 183.466313 45.428091 186 45.428091 186 49.5575692z" mask="url(#tiglogo-d)"/>
    <polygon fill="#FFF" points="192.664 46.04 189.778 46.04 189.778 47.7 193 47.7 193 49 188 49 188 42 192.842 42 192.842 43.299 189.778 43.299 189.778 44.752 192.664 44.752" mask="url(#tiglogo-d)"/>
    <path fill="#FFF" d="M195.483832,45.5784889 L196.074018,45.5784889 C196.817671,45.5784889 197.260073,45.1323613 197.260073,44.4374172 C197.260073,43.7068737 196.846091,43.3429275 196.160225,43.3296724 C195.794556,43.3296724 195.588354,43.364893 195.483832,43.3879947 L195.483832,45.5784889 Z M194,42.1613331 C194.47998,42.0700625 195.195213,42 195.993811,42 C196.975243,42 197.663319,42.1745881 198.135089,42.6218519 C198.529809,42.9998106 198.744853,43.5542511 198.744853,44.2851733 C198.744853,45.2963454 198.147404,45.9924257 197.572692,46.2397273 L197.572692,46.2753266 C198.035935,46.4995266 198.289188,47.0301079 198.458128,47.7621663 C198.663383,48.6574512 198.870216,49.6894528 199,50 L197.466275,50 C197.357332,49.7761788 197.200392,49.1266806 197.003347,48.1484567 C196.827776,47.1584927 196.542946,46.8884681 195.933182,46.8755917 L195.483832,46.8755917 L195.483832,50 L194,50 L194,42.1613331 Z" mask="url(#tiglogo-d)"/>
  </g>
</svg>
